# xmcd CD database file
#
# Track frame offsets:
#	150
#	23027
#	33470
#
# Disc length: 644 seconds
#
# Revision: 0
# Processed by: cddbd v1.5PL3 Copyright (c) Steve Scherf et al.
# Submitted via: CDex 1.50beta8
#
DISCID=1a028203
DTITLE=pre-school - depends
DYEAR=1900
DGENRE=Pop
TTITLE0=depends
TTITLE1=love song
TTITLE2=E. S. O.
EXTD=
EXTT0=
EXTT1=
EXTT2=
PLAYORDER=
